<svg style="display: none;" aria-hidden="true" xmlns="http://www.w3.org/2000/svg" xmlns:xlink="http://www.w3.org/1999/xlink"><symbol viewBox="0 0 10 5" fill="none" id="svg-Polygon_2"><path d="M5 5L0.669872 0.5L9.33013 0.5L5 5Z" fill="#fff"/></symbol><symbol viewBox="0 0 30 20" fill="none" id="svg-burger"><rect width="30" height="2" rx="1" fill="#fff"/><rect y="9" width="30" height="2" rx="1" fill="#fff"/><rect y="18" width="30" height="2" rx="1" fill="#fff"/></symbol><symbol fill="none" viewBox="0 0 14 10" id="svg-check"><path d="M13 1L4.75 9 1 5.364" stroke="#fff" stroke-width="2" stroke-linecap="round" stroke-linejoin="round"/></symbol><symbol viewBox="0 0 18 18" id="svg-close"><defs><path id="da" d="M691.485 160.07l-1.414 1.415-7.071-7.071-7.071 7.071-1.414-1.414 7.07-7.071-7.07-7.071 1.414-1.415 7.07 7.071 7.072-7.07 1.414 1.414-7.07 7.07z"/></defs><use fill="#fff" xlink:href="#da" transform="translate(-674 -144)"/></symbol><symbol viewBox="0 0 25 25" fill="none" id="svg-inst"><circle cx="12.5" cy="12.5" r="12.5" fill="url(#epaint0_linear_11_403)"/><path d="M12.4979 3.2698C8.71563 3.2698 5.12397 2.93334 3.75209 6.45417C3.18543 7.90834 3.26772 9.79688 3.26772 12.5011C3.26772 14.874 3.19168 17.1042 3.75209 18.5469C5.12084 22.0698 8.74168 21.7323 12.4958 21.7323C16.1177 21.7323 19.8521 22.1094 21.2406 18.5469C21.8083 17.0781 21.725 15.2177 21.725 12.5011C21.725 8.8948 21.924 6.56667 20.175 4.81876C18.4042 3.04792 16.0094 3.2698 12.4938 3.2698H12.4979ZM11.6708 4.93334C19.5604 4.92084 20.5646 4.04376 20.0104 16.2281C19.8135 20.5375 16.5323 20.0646 12.499 20.0646C5.1448 20.0646 4.93334 19.8542 4.93334 12.4969C4.93334 5.05417 5.51668 4.93751 11.6708 4.93126V4.93334ZM17.425 6.46563C16.8135 6.46563 16.3177 6.96147 16.3177 7.57292C16.3177 8.18438 16.8135 8.68022 17.425 8.68022C18.0365 8.68022 18.5323 8.18438 18.5323 7.57292C18.5323 6.96147 18.0365 6.46563 17.425 6.46563V6.46563ZM12.4979 7.76042C9.88022 7.76042 7.75834 9.88334 7.75834 12.5011C7.75834 15.1188 9.88022 17.2406 12.4979 17.2406C15.1156 17.2406 17.2365 15.1188 17.2365 12.5011C17.2365 9.88334 15.1156 7.76042 12.4979 7.76042V7.76042ZM12.4979 9.42397C16.5656 9.42397 16.5708 15.5781 12.4979 15.5781C8.43126 15.5781 8.42501 9.42397 12.4979 9.42397Z" fill="#fff"/><defs><linearGradient id="epaint0_linear_11_403" x1="2" y1="23" x2="23.5" y2="1.5" gradientUnits="userSpaceOnUse"><stop stop-color="#8E7F42"/><stop offset=".505" stop-color="#FF543E"/><stop offset=".901" stop-color="#C837AB"/></linearGradient></defs></symbol><symbol viewBox="0 0 7 7" fill="none" id="svg-next"><path d="M4.77734 3.55664L0.258789 1.78613V0.487305L6.09668 3.07129V4.06934L0.258789 6.66016V5.34766L4.77734 3.55664Z" fill="#fff"/></symbol><symbol viewBox="0 0 13 24" id="svg-p-left"><path fill-rule="evenodd" fill="#fff" d="M1.453,12.000 L12.988,23.284 L12.267,23.989 L0.732,12.705 L0.011,12.000 L0.732,11.295 L12.267,0.010 L12.988,0.715 L1.453,12.000 Z"/></symbol><symbol fill="#fff" viewBox="0 0 14 25" id="svg-p-right"><path fill-rule="evenodd" d="M12.107,12.500 L0.793,1.186 L1.500,0.479 L12.814,11.793 L13.521,12.500 L12.814,13.207 L1.500,24.521 L0.793,23.814 L12.107,12.500 Z"/></symbol><symbol viewBox="0 0 7 7" fill="none" id="svg-prev"><path d="M2.24316 3.59766L6.52246 5.32715V6.66699L0.930664 4.07617V3.07812L6.52246 0.494141V1.83398L2.24316 3.59766Z" fill="#fff"/></symbol><symbol viewBox="0 0 140 195" id="svg-shadow"/><symbol viewBox="0 0 240.1 240.1" id="svg-tg"><linearGradient id="ka" gradientUnits="userSpaceOnUse" x1="-838.041" y1="660.581" x2="-838.041" y2="660.343" gradientTransform="matrix(1000 0 0 -1000 838161 660581)"><stop offset="0" stop-color="#2aabee"/><stop offset="1" stop-color="#229ed9"/></linearGradient><circle fill-rule="evenodd" clip-rule="evenodd" fill="url(#ka)" cx="120.1" cy="120.1" r="120.1"/><path fill-rule="evenodd" clip-rule="evenodd" fill="#FFF" d="M54.3,118.8c35-15.2,58.3-25.3,70-30.2 c33.3-13.9,40.3-16.3,44.8-16.4c1,0,3.2,0.2,4.7,1.4c1.2,1,1.5,2.3,1.7,3.3s0.4,3.1,0.2,4.7c-1.8,19-9.6,65.1-13.6,86.3 c-1.7,9-5,12-8.2,12.3c-7,0.6-12.3-4.6-19-9c-10.6-6.9-16.5-11.2-26.8-18c-11.9-7.8-4.2-12.1,2.6-19.1c1.8-1.8,32.5-29.8,33.1-32.3 c0.1-0.3,0.1-1.5-0.6-2.1c-0.7-0.6-1.7-0.4-2.5-0.2c-1.1,0.2-17.9,11.4-50.6,33.5c-4.8,3.3-9.1,4.9-13,4.8 c-4.3-0.1-12.5-2.4-18.7-4.4c-7.5-2.4-13.5-3.7-13-7.9C45.7,123.3,48.7,121.1,54.3,118.8z"/></symbol><symbol viewBox="0 0 25 25" fill="none" id="svg-vk"><path d="M12.5 25C19.4036 25 25 19.4036 25 12.5C25 5.59644 19.4036 0 12.5 0C5.59644 0 0 5.59644 0 12.5C0 19.4036 5.59644 25 12.5 25Z" fill="#4D76A1"/><path fill-rule="evenodd" clip-rule="evenodd" d="M12.0278 17.9824H13.0089C13.0089 17.9824 13.3053 17.9498 13.4566 17.7867C13.5959 17.637 13.5914 17.3558 13.5914 17.3558C13.5914 17.3558 13.5722 16.0393 14.1832 15.8455C14.7855 15.6545 15.5589 17.1178 16.3787 17.6804C16.9986 18.1063 17.4697 18.0129 17.4697 18.0129L19.6616 17.9824C19.6616 17.9824 20.8082 17.9117 20.2645 17.0102C20.22 16.9364 19.9479 16.3433 18.6348 15.1244C17.2604 13.8488 17.4445 14.0551 19.1001 11.8485C20.1083 10.5046 20.5114 9.68416 20.3855 9.33277C20.2654 8.99809 19.5239 9.08655 19.5239 9.08655L17.0559 9.10192C17.0559 9.10192 16.8729 9.07697 16.7372 9.15808C16.6047 9.23762 16.5193 9.42301 16.5193 9.42301C16.5193 9.42301 16.1287 10.4629 15.6077 11.3473C14.5088 13.2135 14.0694 13.312 13.8898 13.1961C13.472 12.926 13.5763 12.1112 13.5763 11.5323C13.5763 9.72383 13.8505 8.96979 13.0421 8.7746C12.7739 8.70975 12.5764 8.66697 11.8904 8.66006C11.0098 8.65093 10.2644 8.66274 9.84239 8.86952C9.56163 9.007 9.34504 9.31338 9.47695 9.33099C9.64006 9.35282 10.0095 9.43059 10.2054 9.69731C10.4583 10.0414 10.4494 10.8141 10.4494 10.8141C10.4494 10.8141 10.5946 12.943 10.11 13.2075C9.77732 13.3888 9.32098 13.0185 8.34122 11.3255C7.83919 10.4583 7.46017 9.49967 7.46017 9.49967C7.46017 9.49967 7.38708 9.32051 7.25673 9.2247C7.09853 9.10861 6.87748 9.07162 6.87748 9.07162L4.53226 9.08699C4.53226 9.08699 4.1802 9.0968 4.05096 9.24988C3.93598 9.38603 4.04182 9.66768 4.04182 9.66768C4.04182 9.66768 5.87789 13.9633 7.95685 16.128C9.86311 18.1127 12.0278 17.9824 12.0278 17.9824Z" fill="#fff"/></symbol></svg>